<svg width="18" height="13" viewBox="0 0 18 13" fill="none" xmlns="http://www.w3.org/2000/svg">
<path d="M2 0C1.46957 0 0.960859 0.210713 0.585786 0.585786C0.210714 0.960858 0 1.46957 0 2L0 11C0 11.5304 0.210714 12.0391 0.585786 12.4142C0.960859 12.7893 1.46957 13 2 13H5.5V0H2Z" fill="#006847"/>
<path d="M16 0H12.5V13H16C16.5304 13 17.0391 12.7893 17.4142 12.4142C17.7893 12.0391 18 11.5304 18 11V2C18 1.46957 17.7893 0.960858 17.4142 0.585786C17.0391 0.210713 16.5304 0 16 0Z" fill="#CE1126"/>
<path d="M5.5 0H12.5V13H5.5V0Z" fill="#EEEEEE"/>
<path d="M11.5 6.5C11.5 7.16304 11.2366 7.79892 10.7678 8.26776C10.2989 8.73661 9.66304 9 9 9C8.33696 9 7.70107 8.73661 7.23223 8.26776C6.76339 7.79892 6.5 7.16304 6.5 6.5H6C6 7.29565 6.31607 8.05871 6.87868 8.62132C7.44129 9.18393 8.20435 9.5 9 9.5C9.79565 9.5 10.5587 9.18393 11.1213 8.62132C11.6839 8.05871 12 7.29565 12 6.5H11.5Z" fill="#A6D388"/>
<path d="M6.77147 7.63454C6.75665 7.60519 6.73615 7.57906 6.71117 7.55767C6.68619 7.53628 6.65723 7.52004 6.62594 7.50991C6.59465 7.49977 6.56167 7.49594 6.52889 7.49862C6.49611 7.5013 6.46419 7.51045 6.43497 7.52554C6.40567 7.54043 6.37958 7.56094 6.35821 7.58591C6.33685 7.61089 6.32061 7.63983 6.31044 7.67109C6.30027 7.70234 6.29636 7.73529 6.29894 7.76806C6.30152 7.80083 6.31054 7.83276 6.32547 7.86204C6.37047 7.95054 6.41997 8.03704 6.47347 8.12004L6.47547 8.12354L6.47947 8.12954L6.48097 8.13304L6.48147 8.13404L6.48347 8.13654L6.48497 8.13954V8.14054L6.48647 8.14304L6.48697 8.14404L6.48847 8.14654L6.48897 8.14754L6.49047 8.14954L6.49147 8.15104L6.49247 8.15254L6.49297 8.15404L6.49447 8.15654L6.49497 8.15704L6.49597 8.15854L6.49747 8.16154L6.49797 8.16254L6.49947 8.16504L6.49997 8.16604L6.50347 8.17104V8.17154L6.50597 8.17504C6.53197 8.21354 6.55847 8.25104 6.58647 8.28854C6.606 8.31479 6.63051 8.33693 6.65862 8.35369C6.68672 8.37044 6.71785 8.38148 6.75023 8.38617C6.78261 8.39087 6.8156 8.38912 6.8473 8.38103C6.879 8.37294 6.9088 8.35867 6.93497 8.33904C6.96133 8.3195 6.98358 8.29495 7.00044 8.2668C7.0173 8.23864 7.02845 8.20744 7.03323 8.17498C7.03801 8.14251 7.03635 8.10942 7.02832 8.0776C7.0203 8.04578 7.00608 8.01586 6.98647 7.98954C6.90664 7.87635 6.8348 7.75773 6.77147 7.63454ZM6.52297 6.84354C6.50434 6.70553 6.49664 6.56627 6.49997 6.42704C6.50186 6.36082 6.47737 6.29655 6.4319 6.24836C6.38643 6.20017 6.3237 6.172 6.25747 6.17004L6.23947 6.17054C6.17637 6.1733 6.11665 6.19983 6.07231 6.24482C6.02797 6.28981 6.00231 6.34991 6.00047 6.41304C5.9993 6.46487 5.99914 6.51671 5.99997 6.56854V6.61354L6.00047 6.61604V6.63004L6.00097 6.63154L6.00047 6.63254V6.63404L6.00097 6.63504V6.64954L6.00147 6.65104V6.65654L6.00197 6.66604L6.00247 6.67054V6.67604C6.00697 6.75604 6.01497 6.83554 6.02547 6.91454C6.03478 6.97988 6.06954 7.03889 6.12218 7.0787C6.17482 7.11851 6.24107 7.13589 6.30647 7.12704C6.33934 7.12274 6.37104 7.11197 6.39973 7.09537C6.42843 7.07877 6.45356 7.05666 6.47368 7.03032C6.4938 7.00397 6.50851 6.97391 6.51697 6.94185C6.52543 6.9098 6.52747 6.87639 6.52297 6.84354ZM9.16997 8.99354L9.16697 8.99404L9.10497 8.99804C8.98654 9.00282 8.86792 8.99931 8.74997 8.98754C8.684 8.98091 8.61809 9.00076 8.56676 9.04272C8.51542 9.08468 8.48285 9.14532 8.47622 9.21129C8.46959 9.27726 8.48944 9.34317 8.5314 9.39451C8.57336 9.44584 8.634 9.47841 8.69997 9.48504L8.76247 9.49054L8.76447 9.49104L8.76547 9.49054L8.76697 9.49104H8.76797L8.77097 9.49154H8.77397L8.77547 9.49204L8.77897 9.49154L8.78047 9.49204H8.78297L8.78597 9.49254L8.78847 9.49304H8.79497L8.79797 9.49354H8.80447C8.88047 9.49854 8.95697 9.50104 9.03397 9.49954H9.05347L9.05697 9.49904L9.05997 9.49954H9.06747L9.06997 9.49904H9.07947L9.08247 9.49854L9.08547 9.49904L9.08597 9.49854L9.08897 9.49904H9.08947L9.09197 9.49854H9.09597L9.09897 9.49804H9.10197L9.10247 9.49854L9.10547 9.49804H9.10897L9.11147 9.49754H9.12147L9.12397 9.49704H9.12597L9.12797 9.49654L9.12997 9.49704H9.13247L9.13447 9.49654H9.13697C9.15797 9.49604 9.17947 9.49404 9.20047 9.49304C9.26523 9.4878 9.32531 9.45726 9.3677 9.40803C9.4101 9.3588 9.43139 9.29486 9.42697 9.23004C9.42569 9.19762 9.41801 9.16577 9.40439 9.13632C9.39076 9.10687 9.37146 9.0804 9.34758 9.05842C9.32371 9.03645 9.29572 9.01941 9.26525 9.00827C9.23477 8.99714 9.20239 8.99213 9.16997 8.99354ZM7.95047 8.76954C7.82438 8.71108 7.7033 8.64235 7.58847 8.56404C7.54406 8.53342 7.49086 8.51814 7.43697 8.52054C7.38461 8.52275 7.33427 8.54136 7.29306 8.57374C7.25186 8.60612 7.22187 8.65063 7.20733 8.70098C7.19279 8.75133 7.19445 8.80497 7.21206 8.85433C7.22967 8.90369 7.26235 8.94626 7.30547 8.97604L7.30597 8.97654L7.30897 8.97804L7.31197 8.98104L7.31497 8.98304L7.31797 8.98554C7.45097 9.07604 7.59197 9.15554 7.73897 9.22354C7.7687 9.23742 7.80088 9.24528 7.83366 9.24668C7.86644 9.24808 7.89917 9.24299 7.92998 9.2317C7.96078 9.22041 7.98905 9.20314 8.01316 9.18089C8.03728 9.15864 8.05675 9.13184 8.07047 9.10204C8.08455 9.07235 8.09262 9.04017 8.09421 9.00734C8.09579 8.97452 8.09086 8.94171 8.07971 8.9108C8.06855 8.87989 8.05139 8.8515 8.02921 8.82725C8.00703 8.80301 7.98027 8.78339 7.95047 8.76954ZM10.4655 8.57054C10.4213 8.57263 10.3785 8.58644 10.3415 8.61054C10.2246 8.68482 10.1018 8.74953 9.97447 8.80404C9.91947 8.82588 9.87404 8.86659 9.84633 8.91888C9.81862 8.97118 9.81044 9.03163 9.82326 9.08941C9.83608 9.14718 9.86906 9.1985 9.91628 9.23417C9.96351 9.26984 10.0219 9.28752 10.081 9.28404C10.1107 9.28262 10.1399 9.2762 10.1675 9.26504L10.2345 9.23504H10.2355L10.2385 9.23304L10.2395 9.23254L10.2415 9.23154H10.2435L10.2455 9.23054L10.2465 9.22954L10.2495 9.22904L10.2505 9.22804L10.252 9.22704L10.2545 9.22604L10.256 9.22554L10.2585 9.22454L10.2595 9.22404L10.262 9.22304L10.263 9.22254C10.2645 9.22154 10.2645 9.22104 10.2655 9.22104L10.2665 9.22054L10.2695 9.21904H10.2705L10.2735 9.21754L10.2765 9.21604L10.2775 9.21554L10.28 9.21404L10.281 9.21354L10.284 9.21204L10.2845 9.21154L10.288 9.21104L10.2915 9.20904L10.2925 9.20854L10.2945 9.20704H10.2955L10.2985 9.20504L10.3025 9.20404L10.3055 9.20204L10.3095 9.20004L10.31 9.19954L10.317 9.19654L10.3205 9.19504L10.3275 9.19104L10.3315 9.18954L10.3345 9.18804L10.342 9.18404L10.345 9.18254L10.3565 9.17654L10.36 9.17554L10.367 9.17154L10.3705 9.16954H10.371C10.3715 9.16904 10.3725 9.16854 10.3745 9.16854C10.3755 9.16704 10.3765 9.16654 10.3775 9.16604L10.3815 9.16404L10.3845 9.16254V9.16204L10.3915 9.15904L10.3955 9.15704L10.396 9.15654L10.3985 9.15504L10.4025 9.15304L10.4055 9.15154H10.4065L10.4095 9.14954L10.413 9.14754L10.4135 9.14704L10.4165 9.14554L10.4195 9.14404L10.4205 9.14354L10.4225 9.14204L10.424 9.14154L10.4265 9.14004L10.4275 9.13954L10.43 9.13804L10.431 9.13754L10.434 9.13654C10.4335 9.13604 10.434 9.13604 10.4345 9.13604L10.4375 9.13454L10.4385 9.13404L10.4405 9.13254L10.4415 9.13204L10.4445 9.13054L10.4455 9.13004C10.4455 9.12904 10.4465 9.12904 10.4475 9.12854L10.449 9.12804L10.451 9.12704L10.4525 9.12604L10.4545 9.12504L10.456 9.12404L10.4575 9.12304L10.459 9.12154L10.4615 9.12104L10.4635 9.12054L10.4645 9.11954L10.4665 9.11854L10.4685 9.11704L10.4695 9.11654L10.4715 9.11554L10.4735 9.11404L10.475 9.11304C10.476 9.11354 10.4765 9.11304 10.4775 9.11254L10.4785 9.11154L10.4805 9.11054L10.482 9.10954L10.4835 9.10854L10.4855 9.10754L10.4875 9.10604L10.4885 9.10554C10.4895 9.10504 10.4915 9.10504 10.4925 9.10404C10.4915 9.10354 10.4915 9.10404 10.4925 9.10404L10.4945 9.10254L10.498 9.10004L10.499 9.09954L10.5025 9.09804L10.5085 9.09454L10.5125 9.09204C10.5156 9.08981 10.5189 9.08797 10.5225 9.08654C10.554 9.06754 10.587 9.04804 10.618 9.02804C10.6738 8.99233 10.7131 8.93595 10.7273 8.87126C10.7416 8.80658 10.7296 8.73888 10.694 8.68304C10.6677 8.64738 10.6332 8.61855 10.5934 8.59897C10.5537 8.5794 10.5098 8.56965 10.4655 8.57054ZM11.751 6.26154L11.739 6.26204C11.6747 6.26475 11.6139 6.29214 11.5693 6.33852C11.5247 6.3849 11.4997 6.44669 11.4995 6.51104C11.4995 6.64954 11.487 6.78954 11.4635 6.92554C11.4523 6.99099 11.4676 7.05817 11.506 7.11232C11.5444 7.16647 11.6028 7.20315 11.6682 7.21429C11.7337 7.22543 11.8009 7.21012 11.855 7.17172C11.9092 7.13332 11.9458 7.07498 11.957 7.00954V7.00704L11.9575 7.00604L11.958 7.00504L11.9575 7.00404L11.958 7.00304V7.00204L11.9585 7.00104V6.99954L11.959 6.99854V6.99404C11.96 6.99354 11.96 6.99254 11.96 6.99204V6.98904C11.9707 6.92417 11.9794 6.85897 11.986 6.79354L11.9855 6.79304L11.986 6.79154L11.9865 6.78904V6.78354L11.9875 6.78204L11.987 6.78004V6.77904L11.9875 6.77754V6.77554L11.9885 6.77504L11.9875 6.77354V6.77154C11.9885 6.77104 11.9885 6.77054 11.9885 6.77004V6.76054L11.9895 6.75904C11.9963 6.67672 11.9998 6.59365 12 6.51104C11.9998 6.445 11.9736 6.38169 11.9269 6.33494C11.8803 6.2882 11.817 6.26181 11.751 6.26154ZM11.5295 7.60954C11.5007 7.59363 11.4691 7.58353 11.4365 7.57984C11.4038 7.57616 11.3707 7.57894 11.3392 7.58804C11.3076 7.59715 11.2781 7.61239 11.2524 7.63289C11.2267 7.6534 11.2053 7.67876 11.1895 7.70754C11.1224 7.82929 11.0449 7.94505 10.958 8.05354C10.9171 8.1055 10.8985 8.1715 10.9062 8.23713C10.9139 8.30276 10.9473 8.36267 10.999 8.40378C11.0508 8.44488 11.1167 8.46382 11.1823 8.45647C11.248 8.44912 11.3081 8.41607 11.3495 8.36454C11.4075 8.29154 11.463 8.21504 11.5145 8.13704C11.5155 8.13354 11.518 8.13004 11.52 8.12704L11.5205 8.12654L11.5225 8.12354L11.5245 8.11954C11.5255 8.11854 11.5265 8.11754 11.5265 8.11654L11.527 8.11704L11.529 8.11404V8.11354C11.5299 8.11262 11.5305 8.11136 11.5305 8.11004L11.5315 8.10954L11.5335 8.10654C11.5345 8.10604 11.5345 8.10454 11.535 8.10354L11.5355 8.10304L11.5375 8.10004L11.538 8.09904L11.539 8.09654L11.5405 8.09554L11.5415 8.09304H11.5425L11.5435 8.09004L11.544 8.08904L11.546 8.08704L11.5465 8.08604C11.547 8.08504 11.547 8.08404 11.548 8.08354L11.5485 8.08204L11.5505 8.08054C11.5505 8.08004 11.5505 8.07954 11.5515 8.07904V8.07704L11.553 8.07604L11.5545 8.07354L11.555 8.07254L11.5565 8.06954L11.5575 8.06854L11.5585 8.06654L11.5595 8.06504C11.5595 8.06454 11.5595 8.06404 11.5605 8.06354C11.5605 8.06304 11.5605 8.06254 11.5615 8.06204L11.563 8.05954L11.5635 8.05804L11.5645 8.05654L11.5655 8.05504C11.5665 8.05454 11.5665 8.05404 11.5665 8.05354C11.5675 8.05304 11.5675 8.05254 11.5675 8.05154L11.5685 8.05004L11.57 8.04804L11.5715 8.04604V8.04454L11.5725 8.04304L11.574 8.04104L11.5755 8.03954V8.03804L11.5775 8.03554V8.03404C11.5785 8.03354 11.579 8.03304 11.579 8.03204L11.58 8.03104L11.581 8.02954L11.5825 8.02704L11.5835 8.02554V8.02454L11.5855 8.02204C11.5855 8.02154 11.5855 8.02104 11.5865 8.02054L11.587 8.01904L11.5885 8.01704L11.5895 8.01504L11.5905 8.01354C11.591 8.01304 11.5905 8.01204 11.5915 8.01154C11.5915 8.01104 11.5915 8.01054 11.5925 8.01054L11.5935 8.00804L11.5945 8.00704L11.5955 8.00404L11.5965 8.00354L11.5975 8.00154L11.5985 8.00054L11.5995 7.99804L11.6005 7.99704L11.6015 7.99404C11.6025 7.99354 11.6015 7.99304 11.6015 7.99304L11.6035 7.99054L11.604 7.98954L11.606 7.98704V7.98654L11.6075 7.98354L11.6085 7.98254L11.6095 7.97954L11.612 7.97654L11.6135 7.97354V7.97304L11.6155 7.96954L11.6165 7.96904L11.629 7.94554C11.66 7.88773 11.667 7.82 11.6483 7.75708C11.6297 7.69416 11.587 7.64114 11.5295 7.60954Z" fill="#5C913B"/>
<path d="M9 8.5C9.82843 8.5 10.5 8.27614 10.5 8C10.5 7.72386 9.82843 7.5 9 7.5C8.17157 7.5 7.5 7.72386 7.5 8C7.5 8.27614 8.17157 8.5 9 8.5Z" fill="#55ACEE"/>
<path d="M9.25 8.5C9.66421 8.5 10 8.27614 10 8C10 7.72386 9.66421 7.5 9.25 7.5C8.83579 7.5 8.5 7.72386 8.5 8C8.5 8.27614 8.83579 8.5 9.25 8.5Z" fill="#FFCC4D"/>
<path d="M9.5585 8.137C9.51528 8.13664 9.47288 8.12515 9.4354 8.10364C9.39791 8.08212 9.36661 8.05131 9.34449 8.01418C9.32238 7.97704 9.31022 7.93483 9.30917 7.89163C9.30812 7.84842 9.31822 7.80567 9.3385 7.76751C9.4185 7.62051 9.5025 7.48701 9.5895 7.37001C9.51787 7.37305 9.44619 7.37455 9.3745 7.37451C9.2365 7.37451 9.1105 7.26201 9.1105 7.12401C9.1105 6.98601 9.208 6.87401 9.3465 6.87401L9.3875 6.87451C9.5355 6.87451 9.6875 6.86551 9.8235 6.85301C9.86138 6.84918 9.89963 6.85424 9.93521 6.86778C9.9708 6.88132 10.0027 6.90297 10.0285 6.93101C10.0355 6.92551 10.0425 6.92001 10.05 6.91551C10.1 6.88251 10.1465 6.85601 10.19 6.83501C10.2209 6.81116 10.2571 6.79504 10.2955 6.78801L10.3135 6.78451C10.4075 6.75401 10.4735 6.75001 10.5 6.75001C10.5392 6.74986 10.5778 6.75896 10.6128 6.77655C10.6477 6.79414 10.6781 6.81973 10.7013 6.85125C10.7246 6.88276 10.74 6.91931 10.7465 6.95793C10.753 6.99655 10.7502 7.03614 10.7385 7.07351C10.6975 7.20651 10.606 7.23651 10.4455 7.26851C10.4035 7.28529 10.3636 7.30676 10.3265 7.33251C10.2813 7.36191 10.2278 7.37612 10.174 7.37306C10.1201 7.37 10.0686 7.34984 10.027 7.31551C10.0611 7.35947 10.0795 7.41356 10.0793 7.46918C10.0791 7.5248 10.0604 7.57877 10.026 7.62251C9.941 7.73101 9.8575 7.86001 9.778 8.00651C9.7566 8.04605 9.7249 8.07906 9.68625 8.10204C9.6476 8.12501 9.60346 8.1371 9.5585 8.137ZM8.8485 7.34251C8.83747 7.34257 8.82644 7.3419 8.8155 7.34051C8.63691 7.31735 8.46038 7.28041 8.2875 7.23001C8.256 7.22066 8.22666 7.2052 8.20115 7.18451C8.17563 7.16382 8.15444 7.13831 8.1388 7.10943C8.12315 7.08054 8.11334 7.04886 8.10995 7.01619C8.10655 6.98351 8.10963 6.95049 8.119 6.91901L8.122 6.90901L8.116 6.92051C8.09996 6.94918 8.07842 6.97442 8.05263 6.99476C8.02683 7.01511 7.99727 7.03017 7.96565 7.03909C7.93402 7.048 7.90095 7.0506 7.86832 7.04672C7.8357 7.04285 7.80415 7.03258 7.7755 7.01651C7.60938 6.92442 7.45677 6.80984 7.322 6.67601C7.27646 6.62886 7.25126 6.56571 7.25183 6.50016C7.2524 6.43461 7.27869 6.3719 7.32504 6.32555C7.37139 6.2792 7.4341 6.25291 7.49965 6.25234C7.5652 6.25177 7.62835 6.27697 7.6755 6.32251C7.774 6.42101 7.8895 6.50751 8.0195 6.58001C8.07044 6.60856 8.10978 6.65404 8.1307 6.70856C8.15161 6.76309 8.15278 6.82321 8.134 6.87851C8.16026 6.82588 8.20423 6.78419 8.25819 6.76078C8.31214 6.73737 8.37262 6.73373 8.429 6.75051C8.567 6.79151 8.7185 6.82301 8.879 6.84451C8.94197 6.85251 8.99954 6.88418 9.04002 6.93307C9.0805 6.98197 9.10087 7.04443 9.09699 7.10779C9.09311 7.17115 9.06527 7.23066 9.01912 7.27425C8.97298 7.31784 8.91198 7.34224 8.8485 7.34251ZM7.6225 6.17301C7.4095 6.17301 7.134 6.09051 6.967 5.89351C6.711 5.59151 6.5605 5.20401 6.5835 4.90701C6.5895 4.82751 6.512 4.76351 6.436 4.74351C6.3925 4.73201 6.316 4.72501 6.28 4.80251C6.26607 4.83261 6.24076 4.85595 6.20963 4.86739C6.1785 4.87883 6.1441 4.87743 6.114 4.86351C6.08389 4.84958 6.06056 4.82427 6.04912 4.79314C6.03768 4.76201 6.03907 4.72761 6.053 4.69751C6.131 4.52801 6.306 4.45251 6.499 4.50151C6.678 4.54801 6.8495 4.70901 6.8325 4.92651C6.8145 5.15751 6.9455 5.48101 7.1575 5.73151C7.269 5.86351 7.463 5.91701 7.595 5.92201C7.7025 5.92751 7.757 5.90301 7.7685 5.89251C7.7405 5.82601 7.37 5.63101 7.212 5.54801C7.0775 5.47751 7.0375 5.38051 7.0275 5.31201C6.994 5.08451 7.2275 4.85401 7.4535 4.63201C7.533 4.55351 7.6085 4.47951 7.6495 4.42501C7.696 4.36351 7.6885 4.32251 7.6795 4.29701C7.645 4.20351 7.4955 4.11101 7.3155 4.07101C7.149 4.03401 7.0365 3.95351 6.9815 3.83151C6.909 3.67101 6.9475 3.46101 7.0985 3.18901C7.10647 3.17466 7.1172 3.16203 7.13006 3.15183C7.14292 3.14163 7.15767 3.13406 7.17345 3.12955C7.18924 3.12505 7.20576 3.1237 7.22206 3.12558C7.23837 3.12746 7.25415 3.13253 7.2685 3.14051C7.28284 3.14849 7.29548 3.15921 7.30568 3.17207C7.31588 3.18494 7.32345 3.19968 7.32795 3.21547C7.33246 3.23125 7.33381 3.24777 7.33193 3.26408C7.33005 3.28039 7.32497 3.29616 7.317 3.31051C7.1745 3.56651 7.1885 3.68251 7.2095 3.72901C7.2305 3.77501 7.284 3.80751 7.3695 3.82651C7.581 3.87351 7.8355 3.99901 7.9135 4.21001C7.958 4.33051 7.9355 4.46051 7.8495 4.57501C7.7975 4.64451 7.7155 4.72501 7.629 4.81051C7.5 4.93751 7.2595 5.17401 7.275 5.27601C7.278 5.29701 7.3055 5.31551 7.3285 5.32701C7.704 5.52401 7.9535 5.66651 8.0045 5.84101C8.01342 5.87078 8.01615 5.90206 8.01254 5.93293C8.00893 5.96379 7.99905 5.9936 7.9835 6.02051C7.935 6.10501 7.834 6.15701 7.691 6.17001C7.6695 6.17201 7.646 6.17301 7.6225 6.17301Z" fill="#5C913B"/>
<path d="M9.75 7C9.88807 7 10 6.77614 10 6.5C10 6.22386 9.88807 6 9.75 6C9.61193 6 9.5 6.22386 9.5 6.5C9.5 6.77614 9.61193 7 9.75 7Z" fill="#FFCC4D"/>
<path d="M8.64602 6.09398C8.64602 6.23798 8.47352 6.35448 8.26052 6.35448C8.04802 6.35448 7.87502 6.23798 7.87502 6.09398C7.87502 5.94998 8.04752 5.83348 8.26052 5.83348C8.47302 5.83348 8.64602 5.94998 8.64602 6.09398ZM8.05252 3.78048C8.07752 3.88648 7.93902 4.01048 7.74302 4.05698C7.54702 4.10348 7.36802 4.05498 7.34252 3.94898C7.31752 3.84248 7.45602 3.71848 7.65152 3.67198C7.84802 3.62598 8.02752 3.67398 8.05252 3.78048Z" fill="#FFCC4D"/>
<path d="M11.2665 6.47746C11.3115 6.51246 11.388 6.11296 11.3765 5.98847C11.3765 5.97997 11.362 5.71547 11.418 5.52647C11.4525 5.46247 11.4545 4.98497 11.4015 4.85947C11.4435 4.85597 11.494 4.84247 11.5 4.79147C11.306 4.86297 11.2605 4.38297 11.074 4.10697C10.893 3.83047 10.6685 3.66947 10.434 3.50147C10.4535 3.45239 10.4809 3.4068 10.515 3.36647C10.2275 3.51047 9.77951 2.98897 9.11751 3.02797C8.96901 3.04247 8.89851 3.05147 8.86051 3.14247C8.73701 3.15247 8.61151 3.18047 8.61151 3.34297C8.61151 3.38197 8.64701 3.45297 8.72601 3.45347C8.83401 3.48497 8.92201 3.46047 8.99551 3.61147L9.01501 3.76747C9.01501 3.76747 8.91851 3.64397 8.86551 3.62447L8.89801 3.55797C8.84801 3.52897 8.75951 3.55247 8.75951 3.55247C8.75951 3.55247 8.56701 3.46247 8.41251 3.48647L8.38251 3.36147C8.35551 3.43847 8.29501 3.43447 8.28651 3.50697C8.26951 3.45497 8.24701 3.39047 8.23101 3.33847C8.17651 3.41247 8.19251 3.49247 8.17301 3.56947C8.15201 3.58747 8.10901 3.58797 8.09801 3.53847C8.09251 3.47747 8.08501 3.47197 8.08501 3.39947C8.04601 3.46797 7.99901 3.50147 7.98351 3.61897L7.94201 3.48897C7.94351 3.64247 7.81151 3.73397 7.68651 3.84247C7.65101 3.90747 7.69201 3.90797 7.69501 3.94147L7.76101 3.97447L7.87951 3.96597C7.89901 3.99047 7.88301 3.99247 7.93451 4.00797C8.07251 4.04647 8.24451 3.88097 8.37951 4.14147C8.31751 4.19347 8.25501 4.31497 8.27501 4.33797C8.30001 4.33797 8.22501 4.37297 8.32601 4.34097C8.22101 4.44297 8.15001 4.57747 8.15001 4.58547C8.13801 4.61447 8.19201 4.58147 8.18101 4.63397L8.20601 4.63097C7.96651 4.88997 8.19801 5.16847 8.17251 5.31797C8.21251 5.38247 8.21751 5.31647 8.26751 5.30997C8.30951 5.49397 8.43051 5.60547 8.50451 5.75097L8.34851 5.75247C8.35201 5.82147 8.41451 5.88697 8.46401 5.94747L8.35951 5.98047C8.2923 6.01396 8.23247 6.06054 8.18351 6.11747C8.14901 6.20147 8.35001 6.22146 8.44701 6.23646L8.44351 6.33797C8.59501 6.35247 8.77001 6.30746 8.77001 6.29896L8.80801 6.26946L8.89351 6.31646C8.92201 6.31646 8.96651 6.20247 8.94601 6.11497C9.00101 6.18046 9.05301 6.28597 9.10801 6.35197L9.15951 6.34497C9.20651 6.41947 9.27101 6.49346 9.31801 6.56796L9.37051 6.58797C9.40101 6.57747 9.42701 6.57396 9.44351 6.51396L9.46751 6.55596L9.55051 6.49896L9.60851 6.48747L9.65201 6.55847C9.67751 6.54896 9.70251 6.49346 9.70401 6.43446C9.73001 6.48596 9.73701 6.48196 9.75601 6.49546L9.79451 6.41447L10.002 6.60846L10.159 6.61747C10.215 6.65546 10.3685 6.67946 10.3945 6.61796C10.5205 6.67196 10.669 6.61096 10.6615 6.55096C10.7775 6.59696 10.956 6.56597 10.956 6.55847C10.9775 6.55597 11.0325 6.50197 10.9805 6.46147C10.597 6.19447 10.0285 5.75247 9.80901 5.64597C9.80901 5.56697 9.74951 5.28247 9.68551 5.20447L9.73751 5.11747C9.88701 5.25697 9.94101 5.24347 10.0205 5.26547C10.1055 5.33297 10.135 5.43547 10.22 5.52897L10.296 5.54297C10.234 5.38028 10.1398 5.23181 10.019 5.10647C10.101 5.14747 10.237 5.25697 10.328 5.33647C10.388 5.43697 10.4055 5.51697 10.4605 5.64297C10.5005 5.66847 10.5415 5.76197 10.536 5.68447C10.5265 5.53897 10.424 5.30847 10.424 5.29197C10.587 5.42097 10.585 5.62197 10.6345 5.74447C10.676 5.80647 10.697 5.88947 10.715 5.86997L10.667 5.49197L10.639 5.35347C10.7595 5.42297 10.8025 5.68797 10.859 6.00596C10.859 6.05646 10.8795 6.11197 10.8765 6.14446C10.9025 6.17647 10.932 6.26496 10.9315 6.21246C10.9315 6.21246 10.9315 5.69547 10.896 5.57697C10.887 5.51347 10.911 5.41047 10.911 5.41047C10.955 5.62497 11.002 5.85747 11.0465 6.07147V6.22897L11.1125 6.29546C11.125 6.16547 11.14 6.03647 11.153 5.90747L11.1035 5.44497V5.31297C11.1025 5.26647 11.146 5.27497 11.1735 5.32797C11.18 5.44147 11.18 5.52997 11.1845 5.64297C11.204 5.77197 11.2175 5.86647 11.227 6.03097C11.2325 6.16397 11.2385 6.48296 11.2665 6.47746Z" fill="#C1694F"/>
</svg>
