<svg width="18" height="13" viewBox="0 0 18 13" fill="none" xmlns="http://www.w3.org/2000/svg">
<path d="M17.7225 1C17.376 0.4045 16.7385 0 16 0H9V1H17.7225ZM0 10H18V11H0V10ZM9 6H18V7H9V6ZM9 4H18V5H9V4ZM0 8H18V9H0V8ZM2 13H16C16.7385 13 17.376 12.5955 17.7225 12H0.2775C0.624 12.5955 1.2615 13 2 13ZM9 2H18V3H9V2Z" fill="#B22334"/>
<path d="M0.034 11.3395C0.0425 11.386 0.052 11.4325 0.0635 11.478C0.0765 11.5285 0.0925 11.577 0.1095 11.626C0.154 11.7555 0.208 11.8805 0.276 11.9975L0.2775 12H17.7225L17.7235 11.998C17.7906 11.8801 17.8462 11.756 17.8895 11.6275C17.9224 11.5337 17.9478 11.4374 17.9655 11.3395C17.986 11.2295 18 11.1165 18 11H0C0 11.1165 0.014 11.229 0.034 11.3395ZM0 9H18V10H0V9ZM0 7V8H18V7H9H0ZM9 5H18V6H9V5ZM9 3H18V4H9V3ZM0.064 1.522C0.0765 1.471 0.094 1.4225 0.11 1.3735C0.0926365 1.42235 0.0772902 1.47189 0.064 1.522ZM9 2H18C18 1.8835 17.986 1.7705 17.9655 1.66C17.948 1.56205 17.9224 1.46572 17.889 1.372C17.8457 1.24291 17.7899 1.11832 17.7225 1H9V2Z" fill="#EEEEEE"/>
<path d="M9 0H2C1.46957 0 0.960859 0.210714 0.585786 0.585786C0.210714 0.960859 0 1.46957 0 2L0 7H9V0Z" fill="#3C3B6E"/>
<path d="M1.00049 1.363L1.30949 1.5875L1.19149 1.95L1.49999 1.726L1.80899 1.95L1.69099 1.5875L1.99999 1.363H1.61799L1.49999 1L1.38249 1.363H1.00049ZM2.00049 2.363L2.30949 2.5875L2.19149 2.95L2.49999 2.726L2.80899 2.95L2.69099 2.5875L2.99999 2.363H2.61799L2.49999 2L2.38249 2.363H2.00049ZM4.00049 2.363L4.30949 2.5875L4.19149 2.95L4.49999 2.726L4.80899 2.95L4.69099 2.5875L4.99999 2.363H4.61799L4.49999 2L4.38249 2.363H4.00049ZM6.00049 2.363L6.30949 2.5875L6.19149 2.95L6.49999 2.726L6.80899 2.95L6.69099 2.5875L6.99999 2.363H6.61799L6.49999 2L6.38249 2.363H6.00049ZM2.00049 4.363L2.30949 4.5875L2.19149 4.95L2.49999 4.726L2.80899 4.95L2.69099 4.5875L2.99999 4.363H2.61799L2.49999 4L2.38249 4.363H2.00049ZM4.00049 4.363L4.30949 4.5875L4.19149 4.95L4.49999 4.726L4.80899 4.95L4.69099 4.5875L4.99999 4.363H4.61799L4.49999 4L4.38249 4.363H4.00049ZM6.00049 4.363L6.30949 4.5875L6.19149 4.95L6.49999 4.726L6.80899 4.95L6.69099 4.5875L6.99999 4.363H6.61799L6.49999 4L6.38249 4.363H6.00049ZM3.00049 1.363L3.30949 1.5875L3.19149 1.95L3.49999 1.726L3.80899 1.95L3.69099 1.5875L3.99999 1.363H3.61799L3.49999 1L3.38249 1.363H3.00049ZM5.00049 1.363L5.30949 1.5875L5.19149 1.95L5.49999 1.726L5.80899 1.95L5.69099 1.5875L5.99999 1.363H5.61799L5.49999 1L5.38249 1.363H5.00049ZM7.00049 1.363L7.30949 1.5875L7.19149 1.95L7.49999 1.726L7.80899 1.95L7.69099 1.5875L7.99999 1.363H7.61799L7.49999 1L7.38249 1.363H7.00049ZM1.00049 3.363L1.30949 3.5875L1.19149 3.95L1.49999 3.726L1.80899 3.95L1.69099 3.5875L1.99999 3.363H1.61799L1.49999 3L1.38249 3.363H1.00049ZM3.19149 3.95L3.49999 3.726L3.80899 3.95L3.69099 3.5875L3.99999 3.363H3.61799L3.49999 3L3.38249 3.363H3.00049L3.30949 3.5875L3.19149 3.95ZM5.00049 3.363L5.30949 3.5875L5.19149 3.95L5.49999 3.726L5.80899 3.95L5.69099 3.5875L5.99999 3.363H5.61799L5.49999 3L5.38249 3.363H5.00049ZM7.00049 3.363L7.30949 3.5875L7.19149 3.95L7.49999 3.726L7.80899 3.95L7.69099 3.5875L7.99999 3.363H7.61799L7.49999 3L7.38249 3.363H7.00049ZM1.00049 5.363L1.30949 5.5875L1.19149 5.95L1.49999 5.726L1.80899 5.95L1.69099 5.5875L1.99999 5.363H1.61799L1.49999 5L1.38249 5.363H1.00049ZM3.19149 5.95L3.49999 5.726L3.80899 5.95L3.69099 5.5875L3.99999 5.363H3.61799L3.49999 5L3.38249 5.363H3.00049L3.30949 5.5875L3.19149 5.95ZM5.00049 5.363L5.30949 5.5875L5.19149 5.95L5.49999 5.726L5.80899 5.95L5.69099 5.5875L5.99999 5.363H5.61799L5.49999 5L5.38249 5.363H5.00049ZM7.00049 5.363L7.30949 5.5875L7.19149 5.95L7.49999 5.726L7.80899 5.95L7.69099 5.5875L7.99999 5.363H7.61799L7.49999 5L7.38249 5.363H7.00049Z" fill="white"/>
</svg>
